<?xml version="1.0"?>
<svg version="1.1" id="Capa_1" xmlns="http://www.w3.org/2000/svg" xmlns:xlink="http://www.w3.org/1999/xlink" x="0px" y="0px"
	 viewBox="0 0 511.998 511.998" style="enable-background:new 0 0 511.998 511.998;" xml:space="preserve"><path d="M488,304H316.423L312,135.789a7.946,7.946,0,0,0-.236-1.729L296,71.015V24a8,8,0,0,0-8-8H48a8,8,0,0,0-8,8V71.015L24.239,134.06A7.946,7.946,0,0,0,24,135.789l-8,304c0,.071,0,.14,0,.211H16v48a8,8,0,0,0,8,8H488a8,8,0,0,0,8-8V312A8,8,0,0,0,488,304Zm-8,64H419.4a75.68,75.68,0,0,0-16.879-14.347C384.632,342.27,361.008,336,336,336s-48.632,6.27-66.521,17.653A75.68,75.68,0,0,0,252.6,368H192V320H480ZM312,416a24.027,24.027,0,0,1-24-24h16a24.027,24.027,0,0,1,24,24Zm32,16h16a40.045,40.045,0,0,0,40-40v-8a8,8,0,0,0-8-8H368a39.788,39.788,0,0,0-24,8.022V376a8,8,0,0,0-16,0v8.022A39.788,39.788,0,0,0,304,376H280a8,8,0,0,0-8,8v8a40.045,40.045,0,0,0,40,40h16v15.758c-18.956-1.142-36.454-6.334-49.93-14.909C263.838,423.792,256,412.126,256,400s7.838-23.792,22.07-32.849C293.423,357.381,314,352,336,352s42.577,5.381,57.93,15.151C408.162,376.208,416,387.874,416,400s-7.838,23.792-22.07,32.849c-13.476,8.575-30.974,13.767-49.93,14.909Zm0-16a24.027,24.027,0,0,1,24-24h16a24.027,24.027,0,0,1-24,24ZM192,384h50.938A45.19,45.19,0,0,0,240,400a46.454,46.454,0,0,0,6.808,24H192Zm237.062,0H480v40H425.192A46.454,46.454,0,0,0,432,400,45.19,45.19,0,0,0,429.062,384ZM280,64H200V32h80ZM152,32h32v73.052l-11.562-7.708a8,8,0,0,0-8.876,0L152,105.052Zm-16,0V64H56V32ZM39.974,137.089,54.246,80H136v40a8,8,0,0,0,12.438,6.656L168,113.615l19.562,13.041A8,8,0,0,0,200,120V80h81.754l14.272,57.088L300.418,304H184a8,8,0,0,0-8,8V432H32.213ZM32,448H176v32H32Zm160,32V440h68.765a83.891,83.891,0,0,0,8.714,6.347C287.368,457.73,310.992,464,336,464s48.632-6.27,66.521-17.653A83.891,83.891,0,0,0,411.235,440H480v40Z"/><path d="M173.46,275.917a43.029,43.029,0,0,0,18.822,4.1,55.548,55.548,0,0,0,9.143-.78c14.276-2.379,28.528-10.079,40.129-21.679s19.3-25.854,21.68-40.13c2.544-15.266-1.192-28.81-10.521-38.139s-22.873-13.065-38.138-10.52c-14.276,2.379-28.528,10.079-40.129,21.679a84.707,84.707,0,0,0-9.619,11.474c-1.058-1.183-2.144-2.345-3.273-3.474-11.6-11.6-25.853-19.3-40.129-21.679-15.266-2.546-28.809,1.192-38.138,10.52s-13.065,22.873-10.521,38.139c2.379,14.276,10.078,28.528,21.68,40.13s25.853,19.3,40.129,21.679a55.545,55.545,0,0,0,9.142.78c11.493,0,21.579-3.883,29-11.3C172.971,276.456,173.211,276.182,173.46,275.917Zm56.781-29.677c-11.651,11.651-26.351,17.91-38.567,17.686-.334-9.657,1.4-27.786,18.4-32.181,16.059-4.149,27.294-11.67,33.392-22.351a36.563,36.563,0,0,0,3.557-8.617C250.414,213.969,244.19,232.291,230.241,246.24Zm-44.482-44.48c11.45-11.45,25.85-17.7,37.939-17.7a28.332,28.332,0,0,1,10.59,1.931l-2.437.688a21.132,21.132,0,0,1-2.4,14.992c-3.919,6.683-11.785,11.59-23.38,14.587-22.468,5.806-29.477,25.766-30.375,42.161-.377-.325-.745-.662-1.1-1.017C162.545,245.344,167.655,219.864,185.759,201.76Zm-66.965-9.212c11.016,1.836,22.183,7.948,31.447,17.212a68.982,68.982,0,0,1,6.351,7.327,65.048,65.048,0,0,0-3.826,13.488,47.713,47.713,0,0,0,1.97,24.8,20.506,20.506,0,0,1-4.4-1.923c-6.683-3.919-11.59-11.784-14.586-23.38-5.807-22.468-25.767-29.477-42.161-30.375.325-.377.661-.745,1.016-1.1C100.175,193.025,108.764,190.873,118.794,192.548ZM105.759,254.24C94.123,242.6,87.866,227.924,88.074,215.717a54.1,54.1,0,0,1,11.761.887c11.27,2.2,17.95,7.918,20.419,17.475,4.15,16.058,11.671,27.292,22.352,33.391a36.574,36.574,0,0,0,8.614,3.558C138.028,274.414,119.708,268.189,105.759,254.24Z"/></svg>
